<svg xmlns="http://www.w3.org/2000/svg" version="1.1" xmlns:xlink="http://www.w3.org/1999/xlink" width="200" height="200"><svg xmlns="http://www.w3.org/2000/svg" version="1.1" xmlns:xlink="http://www.w3.org/1999/xlink" viewBox="0 0 200 200"><rect width="200" height="200" fill="url('#gradient')"></rect><defs><linearGradient id="SvgjsLinearGradient1001" gradientTransform="rotate(172 0.5 0.5)"><stop offset="0%" stop-color="#353664"></stop><stop offset="100%" stop-color="#132387"></stop></linearGradient></defs><g><g fill="#8fa3ff" transform="matrix(2.130374479889043,0,0,2.130374479889043,8.564405429297125,110.81477419182596)" stroke="#e5e28a" stroke-width="0.2"><path d="M9.17-4.81L12.58-4.81Q12.51-3.33 11.78-2.19Q11.04-1.05 9.72-0.43Q8.40 0.20 6.70 0.20L6.70 0.20Q3.90 0.20 2.29-1.63Q0.67-3.46 0.67-6.79L0.67-6.79L0.67-7.49Q0.67-9.58 1.40-11.15Q2.13-12.71 3.50-13.57Q4.86-14.42 6.66-14.42L6.66-14.42Q9.25-14.42 10.82-13.06Q12.39-11.70 12.61-9.31L12.61-9.31L9.19-9.31Q9.15-10.61 8.54-11.17Q7.92-11.74 6.66-11.74L6.66-11.74Q5.38-11.74 4.79-10.78Q4.19-9.82 4.16-7.72L4.16-7.72L4.16-6.72Q4.16-4.44 4.73-3.47Q5.30-2.49 6.70-2.49L6.70-2.49Q7.88-2.49 8.51-3.05Q9.13-3.60 9.17-4.81L9.17-4.81ZM13.64-4.82L13.63-5.38Q13.63-6.96 14.25-8.20Q14.86-9.43 16.02-10.10Q17.17-10.76 18.72-10.76L18.72-10.76Q21.09-10.76 22.46-9.29Q23.83-7.82 23.83-5.29L23.83-5.29L23.83-5.18Q23.83-2.71 22.46-1.25Q21.08 0.20 18.74 0.20L18.74 0.20Q16.48 0.20 15.12-1.16Q13.75-2.51 13.64-4.82L13.64-4.82ZM16.93-5.77L16.92-5.18Q16.92-3.71 17.38-3.03Q17.84-2.34 18.74-2.34L18.74-2.34Q20.50-2.34 20.54-5.05L20.54-5.05L20.54-5.38Q20.54-8.22 18.72-8.22L18.72-8.22Q17.07-8.22 16.93-5.77L16.93-5.77ZM25.30-10.57L28.39-10.57L28.50-9.33Q29.62-10.76 31.51-10.76L31.51-10.76Q33.52-10.76 34.22-9.17L34.22-9.17Q35.29-10.76 37.32-10.76L37.32-10.76Q40.54-10.76 40.63-6.88L40.63-6.88L40.63 0L37.32 0L37.32-6.67Q37.32-7.48 37.05-7.85Q36.78-8.22 36.05-8.22L36.05-8.22Q35.08-8.22 34.60-7.35L34.60-7.35L34.61-7.22L34.61 0L31.31 0L31.31-6.65Q31.31-7.48 31.04-7.85Q30.78-8.22 30.04-8.22L30.04-8.22Q29.09-8.22 28.59-7.35L28.59-7.35L28.59 0L25.30 0L25.30-10.57ZM52.31-5.36L52.31-5.21Q52.31-2.74 51.21-1.27Q50.10 0.20 48.21 0.20L48.21 0.20Q46.76 0.20 45.82-0.87L45.82-0.87L45.82 4.06L42.53 4.06L42.53-10.57L45.61-10.57L45.70-9.59Q46.65-10.76 48.19-10.76L48.19-10.76Q50.15-10.76 51.23-9.32Q52.31-7.88 52.31-5.36L52.31-5.36ZM49.02-5.06L49.02-5.41Q49.02-8.22 47.38-8.22L47.38-8.22Q46.21-8.22 45.82-7.38L45.82-7.38L45.82-3.22Q46.25-2.34 47.40-2.34L47.40-2.34Q48.97-2.34 49.02-5.06L49.02-5.06ZM63.01 0L59.72 0Q59.54-0.32 59.40-0.95L59.40-0.95Q58.50 0.20 56.87 0.20L56.87 0.20Q55.37 0.20 54.33-0.71Q53.28-1.61 53.28-2.98L53.28-2.98Q53.28-4.70 54.55-5.58Q55.82-6.46 58.24-6.46L58.24-6.46L59.26-6.46L59.26-7.01Q59.26-8.47 58.00-8.47L58.00-8.47Q56.83-8.47 56.83-7.31L56.83-7.31L53.54-7.31Q53.54-8.85 54.84-9.80Q56.14-10.76 58.16-10.76Q60.19-10.76 61.36-9.78Q62.53-8.79 62.56-7.07L62.56-7.07L62.56-2.39Q62.58-0.94 63.01-0.17L63.01-0.17L63.01 0ZM57.66-2.15L57.66-2.15Q58.27-2.15 58.68-2.41Q59.08-2.68 59.26-3.01L59.26-3.01L59.26-4.70L58.30-4.70Q56.58-4.70 56.58-3.15L56.58-3.15Q56.58-2.71 56.88-2.43Q57.19-2.15 57.66-2.15ZM64.32-10.57L67.40-10.57L67.51-9.33Q68.60-10.76 70.53-10.76L70.53-10.76Q72.18-10.76 72.99-9.78Q73.81-8.79 73.84-6.81L73.84-6.81L73.84 0L70.54 0L70.54-6.67Q70.54-7.47 70.21-7.85Q69.89-8.22 69.04-8.22L69.04-8.22Q68.08-8.22 67.61-7.46L67.61-7.46L67.61 0L64.32 0L64.32-10.57ZM78.21-10.57L79.88-4.61L81.64-10.57L85.17-10.57L80.86 1.77L80.67 2.22Q79.76 4.27 77.43 4.27L77.43 4.27Q76.79 4.27 76.07 4.07L76.07 4.07L76.07 1.72L76.50 1.72Q77.20 1.72 77.56 1.52Q77.93 1.32 78.11 0.80L78.11 0.80L78.37 0.10L74.70-10.57L78.21-10.57Z"></path></g></g></svg><style>@media (prefers-color-scheme: light) { :root { filter: none; } }
@media (prefers-color-scheme: dark) { :root { filter: none; } }
</style></svg>